<?xml version="1.0" encoding="UTF-8"?><svg xmlns="http://www.w3.org/2000/svg" xmlns:xlink="http://www.w3.org/1999/xlink" color-interpolation="auto" color-rendering="auto" fill="rgb(0,0,0)" fill-opacity="0" font-family="'Dialog'" font-size="12px" font-style="normal" font-weight="normal" height="457" image-rendering="auto" shape-rendering="auto" stroke="rgb(0,0,0)" stroke-dasharray="none" stroke-dashoffset="0" stroke-linecap="square" stroke-linejoin="miter" stroke-miterlimit="10" stroke-opacity="0" stroke-width="1" text-rendering="auto" viewbox="0 0 733 457" width="733"><!--Generated by the Batik Graphics2D SVG Generator--><defs id="genericDefs"/><g><defs id="defs1"><clipPath clipPathUnits="userSpaceOnUse" id="ec0ef058-8cac-4aba-96c3-559cfdfbde00"><path d="M-7 -7 L31 -7 L31 31 L-7 31 L-7 -7 Z"/></clipPath><clipPath clipPathUnits="userSpaceOnUse" id="8a6b4906-21c8-4132-8d4e-82ea745a8c9e"><path d="M-7 -7 L31 -7 L31 31 L-7 31 L-7 -7 Z"/></clipPath><clipPath clipPathUnits="userSpaceOnUse" id="6d3dde3c-d9a5-4f00-95a5-f98a6f709db3"><path d="M-7 -7 L104 -7 L104 51 L-7 51 L-7 -7 Z"/></clipPath><clipPath clipPathUnits="userSpaceOnUse" id="96ea4f71-89fc-433d-bb9c-8c217a1f8e2c"><path d="M-7 -7 L104 -7 L104 51 L-7 51 L-7 -7 Z"/></clipPath><clipPath clipPathUnits="userSpaceOnUse" id="51c0e10c-46f3-449a-ad67-86d91f9ed72a"><path d="M-7 -7 L104 -7 L104 51 L-7 51 L-7 -7 Z"/></clipPath><clipPath clipPathUnits="userSpaceOnUse" id="fecb14d9-7980-4c71-b65a-db2692c5b61d"><path d="M-7 -7 L104 -7 L104 51 L-7 51 L-7 -7 Z"/></clipPath><clipPath clipPathUnits="userSpaceOnUse" id="c3c60a0f-5b8d-4996-b7a1-d3a461a29591"><path d="M-7 -7 L104 -7 L104 51 L-7 51 L-7 -7 Z"/></clipPath><clipPath clipPathUnits="userSpaceOnUse" id="b11d9fde-29ff-4bb5-8eea-8a990239f341"><path d="M-7 -7 L104 -7 L104 51 L-7 51 L-7 -7 Z"/></clipPath><clipPath clipPathUnits="userSpaceOnUse" id="9a3ec253-d754-4452-943b-ff4e058eea29"><path d="M-7 -7 L182 -7 L182 127 L-7 127 L-7 -7 Z"/></clipPath><clipPath clipPathUnits="userSpaceOnUse" id="36030df2-a30a-45b3-b174-f279ea1a21fd"><path d="M-7 -7 L182 -7 L182 127 L-7 127 L-7 -7 Z"/></clipPath><clipPath clipPathUnits="userSpaceOnUse" id="b64557e8-5fd1-4a08-a8c7-eceae44f10b2"><path d="M-7 -7 L182 -7 L182 127 L-7 127 L-7 -7 Z"/></clipPath><clipPath clipPathUnits="userSpaceOnUse" id="02a1f788-d3e8-4602-be6c-d624fd4ca1b5"><path d="M0 0 L0 98 L171 98 L171 0 Z"/></clipPath><clipPath clipPathUnits="userSpaceOnUse" id="2d0b6aef-e137-4f04-9866-c98bc5f26570"><path d="M-93 -16 L186 -16 L186 32 L-93 32 L-93 -16 Z"/></clipPath><clipPath clipPathUnits="userSpaceOnUse" id="ff8a828e-d631-4090-8d78-147bc58ce9d8"><path d="M-171 -16 L342 -16 L342 32 L-171 32 L-171 -16 Z"/></clipPath><clipPath clipPathUnits="userSpaceOnUse" id="c7f08de0-a674-4740-bf5e-6f232966da9a"><path d="M0 0 L104 0 L104 182 L0 182 L0 0 Z"/></clipPath><clipPath clipPathUnits="userSpaceOnUse" id="5ef27c4e-a7b7-4c30-ab95-849d046a1f2f"><path d="M0 0 L0 182 L104 182 L104 0 Z"/></clipPath><clipPath clipPathUnits="userSpaceOnUse" id="ade119e5-b908-41c8-a68d-baaffcc66933"><path d="M0 0 L425 0 L425 285 L0 285 L0 0 Z"/></clipPath><clipPath clipPathUnits="userSpaceOnUse" id="fb6ee643-5b6b-4e3a-bc1d-3717d21af515"><path d="M270 27 L270 43 L108 43 L108 27 ZM246 69 L246 85 L96 85 L96 69 ZM410 94 L410 110 L252 110 L252 94 ZM233 169 L233 185 L71 185 L71 169 ZM216 211 L216 227 L35 227 L35 211 ZM0 0 L0 138 L69 138 L69 154 L0 154 L0 285 L425 285 L425 154 L336 154 L336 138 L425 138 L425 0 Z"/></clipPath><clipPath clipPathUnits="userSpaceOnUse" id="b9b2023c-8abd-43e8-b75d-2e339523dbfd"><path d="M0 0 L104 0 L104 274 L0 274 L0 0 Z"/></clipPath><clipPath clipPathUnits="userSpaceOnUse" id="07b1bdd7-1884-40a7-a007-9a2d0acde256"><path d="M0 0 L0 83 L47 83 L47 99 L0 99 L0 127 L104 127 L104 13 L96 13 L96 0 ZM0 143 L0 274 L104 274 L104 143 Z"/></clipPath><clipPath clipPathUnits="userSpaceOnUse" id="7385c943-3cf4-496c-b8af-8eb61ba49bcc"><path d="M0 0 L150 0 L150 152 L0 152 L0 0 Z"/></clipPath><clipPath clipPathUnits="userSpaceOnUse" id="f51167c4-3607-4477-8323-38b85a132d85"><path d="M0 0 L0 151 L55 151 L55 152 L150 152 L150 81 L104 81 L104 65 L150 65 L150 0 Z"/></clipPath><clipPath clipPathUnits="userSpaceOnUse" id="86476710-1ac4-4404-a060-9e1232b9c6c9"><path d="M0 0 L148 0 L148 144 L0 144 L0 0 Z"/></clipPath><clipPath clipPathUnits="userSpaceOnUse" id="f42f8e5c-4b89-48c1-95ff-5732ff62c3b4"><path d="M0 0 L0 27 L11 27 L11 43 L0 43 L0 94 L148 94 L148 0 ZM0 110 L0 144 L77 144 L77 138 L148 138 L148 110 Z"/></clipPath><clipPath clipPathUnits="userSpaceOnUse" id="0146af1e-60e4-4300-81f2-5892c23fab6d"><path d="M0 0 L383 0 L383 104 L0 104 L0 0 Z"/></clipPath><clipPath clipPathUnits="userSpaceOnUse" id="1a29a3bd-2eb1-44e2-9e4e-90d1bfa63806"><path d="M270 41 L270 57 L108 57 L108 41 ZM246 83 L246 99 L96 99 L96 83 ZM0 0 L0 104 L383 104 L383 0 Z"/></clipPath><clipPath clipPathUnits="userSpaceOnUse" id="3befbd63-26c3-41ee-8ba8-2c77d7ed81b9"><path d="M0 0 L398 0 L398 287 L0 287 L0 0 Z"/></clipPath><clipPath clipPathUnits="userSpaceOnUse" id="a9f6219b-b2b1-49d0-a610-e67cf4541d0a"><path d="M278 16 L278 32 L116 32 L116 16 ZM254 58 L254 74 L104 74 L104 58 ZM241 158 L241 174 L79 174 L79 158 ZM224 200 L224 216 L43 216 L43 200 ZM0 0 L0 127 L77 127 L77 143 L0 143 L0 287 L398 287 L398 143 L344 143 L344 127 L398 127 L398 99 L260 99 L260 83 L398 83 L398 0 Z"/></clipPath><clipPath clipPathUnits="userSpaceOnUse" id="0e535c9c-1c71-49ac-8e25-d4b46ae5537f"><path d="M0 0 L494 0 L494 200 L0 200 L0 0 Z"/></clipPath><clipPath clipPathUnits="userSpaceOnUse" id="9ed1e996-e3d5-4f60-80a7-0c14dd91519f"><path d="M333 137 L333 153 L159 153 L159 137 ZM0 0 L0 87 L78 87 L78 103 L0 103 L0 200 L494 200 L494 0 L243 0 L243 5 L62 5 L62 0 Z"/></clipPath><clipPath clipPathUnits="userSpaceOnUse" id="95407cfe-2563-4e6b-b285-b56ea9ed1cf3"><path d="M0 0 L154 0 L154 149 L0 149 L0 0 Z"/></clipPath><clipPath clipPathUnits="userSpaceOnUse" id="03a7ee5c-c883-4f23-bde8-ee16408230c1"><path d="M0 0 L0 101 L154 101 L154 19 L148 19 L148 3 L154 3 L154 0 ZM0 117 L0 149 L154 149 L154 117 Z"/></clipPath><clipPath clipPathUnits="userSpaceOnUse" id="ff8898e4-25d8-42af-a0e1-44890bf575eb"><path d="M0 0 L151 0 L151 150 L0 150 L0 0 Z"/></clipPath><clipPath clipPathUnits="userSpaceOnUse" id="af4d511b-ad54-44c2-ba43-383aa35c5805"><path d="M89 0 L89 6 L0 6 L0 150 L151 150 L151 79 L55 79 L55 63 L151 63 L151 37 L91 37 L91 21 L151 21 L151 0 Z"/></clipPath><clipPath clipPathUnits="userSpaceOnUse" id="c8e75220-4473-4b0d-8cc1-ef2d4cfe48ad"><path d="M0 0 L104 0 L104 274 L0 274 L0 0 Z"/></clipPath><clipPath clipPathUnits="userSpaceOnUse" id="7d3f7165-5430-4d5f-85d6-b3a393ed6890"><path d="M0 0 L0 127 L104 127 L104 0 ZM0 143 L0 274 L104 274 L104 143 Z"/></clipPath><clipPath clipPathUnits="userSpaceOnUse" id="a440df88-814f-405e-8502-ed94cbd871c6"><path d="M-162 -16 L324 -16 L324 32 L-162 32 L-162 -16 Z"/></clipPath><clipPath clipPathUnits="userSpaceOnUse" id="4c968b3a-0227-43f5-855d-741a73d89f29"><path d="M-181 -16 L362 -16 L362 32 L-181 32 L-181 -16 Z"/></clipPath><clipPath clipPathUnits="userSpaceOnUse" id="99c393ce-43e2-43f7-a052-40d16485b0af"><path d="M-171 -16 L342 -16 L342 32 L-171 32 L-171 -16 Z"/></clipPath><clipPath clipPathUnits="userSpaceOnUse" id="51fa14e9-c2be-4c1b-9da2-3347ecd4ebcf"><path d="M-174 -16 L348 -16 L348 32 L-174 32 L-174 -16 Z"/></clipPath><clipPath clipPathUnits="userSpaceOnUse" id="accf9117-67f0-4932-9d2f-cafe774a7e9c"><path d="M-158 -16 L316 -16 L316 32 L-158 32 L-158 -16 Z"/></clipPath><clipPath clipPathUnits="userSpaceOnUse" id="3987d179-ef16-4b63-a340-0c26b8877c07"><path d="M-148 -16 L296 -16 L296 32 L-148 32 L-148 -16 Z"/></clipPath><clipPath clipPathUnits="userSpaceOnUse" id="ab285c23-ad60-4e38-b727-b535898787b5"><path d="M-177 -16 L354 -16 L354 32 L-177 32 L-177 -16 Z"/></clipPath><clipPath clipPathUnits="userSpaceOnUse" id="50da4d5e-087e-400a-942d-4ff7ecaf00f5"><path d="M-150 -16 L300 -16 L300 32 L-150 32 L-150 -16 Z"/></clipPath></defs><g fill="white" fill-opacity="1" stroke="white" stroke-opacity="1" text-rendering="geometricPrecision"><rect height="457" stroke="none" width="733" x="0" y="0"/></g><g data="{&quot;name&quot;:&quot;&quot;,&quot;modelType&quot;:&quot;InitialPseudoState&quot;}" hyper="" model-id="shape-BCmLO1mAU5E0fA0W" style="pointer-events: auto; cursor: pointer;"><g fill="black" fill-opacity="1" font-family="sans-serif" font-size="11px" image-rendering="optimizeQuality" stroke="black" stroke-opacity="1" text-rendering="geometricPrecision" transform="translate(115,2)"><circle clip-path="url(#8a6b4906-21c8-4132-8d4e-82ea745a8c9e)" cx="9.5" cy="9.5" r="9.5" stroke="none"/></g></g><g data="{&quot;name&quot;:&quot;Idle&quot;,&quot;modelType&quot;:&quot;State2&quot;}" hyper="" model-id="shape-JMUbO1mAU5E0fA2I" style="pointer-events: auto; cursor: pointer;"><g fill="rgb(122,207,245)" fill-opacity="1" font-family="sans-serif" font-size="11px" image-rendering="optimizeQuality" stroke="rgb(122,207,245)" stroke-opacity="1" text-rendering="geometricPrecision" transform="translate(79,99)"><rect clip-path="url(#96ea4f71-89fc-433d-bb9c-8c217a1f8e2c)" height="40" rx="10" ry="10" stroke="none" width="93" x="0" y="0"/></g><g fill="black" fill-opacity="1" font-family="sans-serif" font-size="11px" image-rendering="optimizeQuality" stroke="black" stroke-linecap="butt" stroke-linejoin="round" stroke-miterlimit="0" stroke-opacity="1" text-rendering="geometricPrecision" transform="translate(79,99)"><rect clip-path="url(#96ea4f71-89fc-433d-bb9c-8c217a1f8e2c)" fill="none" height="40" rx="10" ry="10" width="93" x="0" y="0"/></g></g><g data="{&quot;name&quot;:&quot;Conversation&quot;,&quot;modelType&quot;:&quot;State2&quot;}" hyper="" model-id="shape-vV8bO1mAU5E0fA2T" style="pointer-events: auto; cursor: pointer;"><g fill="rgb(122,207,245)" fill-opacity="1" font-family="sans-serif" font-size="11px" image-rendering="optimizeQuality" stroke="rgb(122,207,245)" stroke-opacity="1" text-rendering="geometricPrecision" transform="translate(452,99)"><rect clip-path="url(#fecb14d9-7980-4c71-b65a-db2692c5b61d)" height="40" rx="10" ry="10" stroke="none" width="93" x="0" y="0"/></g><g fill="black" fill-opacity="1" font-family="sans-serif" font-size="11px" image-rendering="optimizeQuality" stroke="black" stroke-linecap="butt" stroke-linejoin="round" stroke-miterlimit="0" stroke-opacity="1" text-rendering="geometricPrecision" transform="translate(452,99)"><rect clip-path="url(#fecb14d9-7980-4c71-b65a-db2692c5b61d)" fill="none" height="40" rx="10" ry="10" width="93" x="0" y="0"/></g></g><g data="{&quot;name&quot;:&quot;Warning&quot;,&quot;modelType&quot;:&quot;State2&quot;}" hyper="" model-id="shape-dNybO1mAU5E0fA2g" style="pointer-events: auto; cursor: pointer;"><g fill="rgb(122,207,245)" fill-opacity="1" font-family="sans-serif" font-size="11px" image-rendering="optimizeQuality" stroke="rgb(122,207,245)" stroke-opacity="1" text-rendering="geometricPrecision" transform="translate(79,310)"><rect clip-path="url(#b11d9fde-29ff-4bb5-8eea-8a990239f341)" height="40" rx="10" ry="10" stroke="none" width="93" x="0" y="0"/></g><g fill="black" fill-opacity="1" font-family="sans-serif" font-size="11px" image-rendering="optimizeQuality" stroke="black" stroke-linecap="butt" stroke-linejoin="round" stroke-miterlimit="0" stroke-opacity="1" text-rendering="geometricPrecision" transform="translate(79,310)"><rect clip-path="url(#b11d9fde-29ff-4bb5-8eea-8a990239f341)" fill="none" height="40" rx="10" ry="10" width="93" x="0" y="0"/></g></g><g data="{&quot;name&quot;:&quot;Ready&quot;,&quot;modelType&quot;:&quot;State2&quot;}" hyper="" model-id="shape-pTqbO1mAU5E0fA2p" style="pointer-events: auto; cursor: pointer;"><g fill="rgb(122,207,245)" fill-opacity="1" font-family="sans-serif" font-size="11px" image-rendering="optimizeQuality" stroke="rgb(122,207,245)" stroke-opacity="1" text-rendering="geometricPrecision" transform="translate(459,310)"><rect clip-path="url(#36030df2-a30a-45b3-b174-f279ea1a21fd)" height="116" rx="10" ry="10" stroke="none" width="171" x="0" y="0"/></g><g fill="black" fill-opacity="1" font-family="sans-serif" font-size="11px" image-rendering="optimizeQuality" stroke="black" stroke-linecap="butt" stroke-linejoin="round" stroke-miterlimit="0" stroke-opacity="1" text-rendering="geometricPrecision" transform="translate(459,310)"><rect clip-path="url(#36030df2-a30a-45b3-b174-f279ea1a21fd)" fill="none" height="116" rx="10" ry="10" width="171" x="0" y="0"/></g></g><g fill="black" fill-opacity="1" font-family="sans-serif" font-size="11px" image-rendering="optimizeQuality" stroke="black" stroke-opacity="1" text-rendering="geometricPrecision" transform="translate(459,326)"><text clip-path="url(#02a1f788-d3e8-4602-be6c-d624fd4ca1b5)" stroke="none" x="6" xml:space="preserve" y="12">entry / 
</text><text clip-path="url(#02a1f788-d3e8-4602-be6c-d624fd4ca1b5)" stroke="none" x="6" xml:space="preserve" y="28">    startTimer
</text><text clip-path="url(#02a1f788-d3e8-4602-be6c-d624fd4ca1b5)" stroke="none" x="6" xml:space="preserve" y="44">    body = startTimer();
</text><text clip-path="url(#02a1f788-d3e8-4602-be6c-d624fd4ca1b5)" stroke="none" x="6" xml:space="preserve" y="60">exit / 
</text><text clip-path="url(#02a1f788-d3e8-4602-be6c-d624fd4ca1b5)" stroke="none" x="6" xml:space="preserve" y="76">    stopTimer
</text><text clip-path="url(#02a1f788-d3e8-4602-be6c-d624fd4ca1b5)" stroke="none" x="6" xml:space="preserve" y="92">    body = stopTimer();</text></g><g fill="black" fill-opacity="1" font-family="sans-serif" font-size="11px" image-rendering="optimizeQuality" stroke="black" stroke-opacity="1" text-rendering="geometricPrecision" transform="translate(459,326)"><line clip-path="url(#02a1f788-d3e8-4602-be6c-d624fd4ca1b5)" fill="none" x1="0" x2="170" y1="0" y2="0"/></g><g fill="black" fill-opacity="1" font-family="sans-serif" font-size="11px" image-rendering="optimizeQuality" stroke="black" stroke-opacity="1" text-rendering="geometricPrecision" transform="translate(79,99)"><text clip-path="url(#2d0b6aef-e137-4f04-9866-c98bc5f26570)" stroke="none" x="36" xml:space="preserve" y="12">Idle</text></g><g fill="black" fill-opacity="1" font-family="sans-serif" font-size="11px" image-rendering="optimizeQuality" stroke="black" stroke-opacity="1" text-rendering="geometricPrecision" transform="translate(452,99)"><text clip-path="url(#2d0b6aef-e137-4f04-9866-c98bc5f26570)" stroke="none" x="11" xml:space="preserve" y="12">Conversation</text></g><g fill="black" fill-opacity="1" font-family="sans-serif" font-size="11px" image-rendering="optimizeQuality" stroke="black" stroke-opacity="1" text-rendering="geometricPrecision" transform="translate(79,310)"><text clip-path="url(#2d0b6aef-e137-4f04-9866-c98bc5f26570)" stroke="none" x="23" xml:space="preserve" y="12">Warning</text></g><g fill="black" fill-opacity="1" font-family="sans-serif" font-size="11px" image-rendering="optimizeQuality" stroke="black" stroke-opacity="1" text-rendering="geometricPrecision" transform="translate(459,310)"><text clip-path="url(#ff8a828e-d631-4090-8d78-147bc58ce9d8)" stroke="none" x="69" xml:space="preserve" y="12">Ready</text></g><g data="{&quot;modelType&quot;:&quot;Transition2&quot;}" hyper="" model-id="connector-FepbO1mAU5E0fA3b" style="pointer-events: auto; cursor: pointer;"><g fill="black" fill-opacity="1" font-family="sans-serif" font-size="11px" image-rendering="optimizeQuality" stroke="black" stroke-linecap="butt" stroke-linejoin="round" stroke-opacity="1" text-rendering="geometricPrecision" transform="translate(75,-30)"><line clip-path="url(#5ef27c4e-a7b7-4c30-ab95-849d046a1f2f)" fill="none" x1="50" x2="50" y1="50" y2="128"/><line clip-path="url(#5ef27c4e-a7b7-4c30-ab95-849d046a1f2f)" fill="none" x1="50" x2="56" y1="128" y2="116"/><line clip-path="url(#5ef27c4e-a7b7-4c30-ab95-849d046a1f2f)" fill="none" x1="50" x2="44" y1="128" y2="116"/></g></g><g data="{&quot;modelType&quot;:&quot;Transition2&quot;}" hyper="" model-id="connector-fthHO1mAU5E0fBOS" style="pointer-events: auto; cursor: pointer;"><g fill="black" fill-opacity="1" font-family="sans-serif" font-size="11px" image-rendering="optimizeQuality" stroke="black" stroke-linecap="butt" stroke-linejoin="round" stroke-opacity="1" text-rendering="geometricPrecision" transform="translate(122,78)"><line clip-path="url(#fb6ee643-5b6b-4e3a-bc1d-3717d21af515)" fill="none" x1="50" x2="120" y1="50" y2="50"/><line clip-path="url(#fb6ee643-5b6b-4e3a-bc1d-3717d21af515)" fill="none" x1="120" x2="371" y1="50" y2="173"/><line clip-path="url(#fb6ee643-5b6b-4e3a-bc1d-3717d21af515)" fill="none" x1="371" x2="371" y1="173" y2="231"/><line clip-path="url(#fb6ee643-5b6b-4e3a-bc1d-3717d21af515)" fill="none" x1="371" x2="377" y1="231" y2="219"/><line clip-path="url(#fb6ee643-5b6b-4e3a-bc1d-3717d21af515)" fill="none" x1="371" x2="365" y1="231" y2="219"/></g></g><g data="{&quot;modelType&quot;:&quot;Transition2&quot;}" hyper="" model-id="connector-XaGXO1mAU5E0fBOj" style="pointer-events: auto; cursor: pointer;"><g fill="black" fill-opacity="1" font-family="sans-serif" font-size="11px" image-rendering="optimizeQuality" stroke="black" stroke-linecap="butt" stroke-linejoin="round" stroke-opacity="1" text-rendering="geometricPrecision" transform="translate(485,89)"><line clip-path="url(#07b1bdd7-1884-40a7-a007-9a2d0acde256)" fill="none" x1="50" x2="50" y1="220" y2="50"/><line clip-path="url(#07b1bdd7-1884-40a7-a007-9a2d0acde256)" fill="none" x1="50" x2="44" y1="50" y2="62"/><line clip-path="url(#07b1bdd7-1884-40a7-a007-9a2d0acde256)" fill="none" x1="50" x2="56" y1="50" y2="62"/></g></g><g data="{&quot;modelType&quot;:&quot;Transition2&quot;}" hyper="" model-id="connector-fCw3O1mAU5E0fBPP" style="pointer-events: auto; cursor: pointer;"><g fill="black" fill-opacity="1" font-family="sans-serif" font-size="11px" image-rendering="optimizeQuality" stroke="black" stroke-linecap="butt" stroke-linejoin="round" stroke-opacity="1" text-rendering="geometricPrecision" transform="translate(477,21)"><line clip-path="url(#f51167c4-3607-4477-8323-38b85a132d85)" fill="none" x1="50" x2="50" y1="77" y2="50"/><line clip-path="url(#f51167c4-3607-4477-8323-38b85a132d85)" fill="none" x1="50" x2="96" y1="50" y2="50"/><line clip-path="url(#f51167c4-3607-4477-8323-38b85a132d85)" fill="none" x1="96" x2="96" y1="50" y2="98"/><line clip-path="url(#f51167c4-3607-4477-8323-38b85a132d85)" fill="none" x1="96" x2="68" y1="98" y2="98"/><line clip-path="url(#f51167c4-3607-4477-8323-38b85a132d85)" fill="none" x1="68" x2="80" y1="98" y2="104"/><line clip-path="url(#f51167c4-3607-4477-8323-38b85a132d85)" fill="none" x1="68" x2="80" y1="98" y2="92"/></g></g><g data="{&quot;modelType&quot;:&quot;Transition2&quot;}" hyper="" model-id="connector-9a03O1mAU5E0fBPe" style="pointer-events: auto; cursor: pointer;"><g fill="black" fill-opacity="1" font-family="sans-serif" font-size="11px" image-rendering="optimizeQuality" stroke="black" stroke-linecap="butt" stroke-linejoin="round" stroke-opacity="1" text-rendering="geometricPrecision" transform="translate(381,78)"><line clip-path="url(#f42f8e5c-4b89-48c1-95ff-5732ff62c3b4)" fill="none" x1="70" x2="50" y1="50" y2="50"/><line clip-path="url(#f42f8e5c-4b89-48c1-95ff-5732ff62c3b4)" fill="none" x1="50" x2="50" y1="50" y2="90"/><line clip-path="url(#f42f8e5c-4b89-48c1-95ff-5732ff62c3b4)" fill="none" x1="50" x2="94" y1="90" y2="90"/><line clip-path="url(#f42f8e5c-4b89-48c1-95ff-5732ff62c3b4)" fill="none" x1="94" x2="94" y1="90" y2="61"/><line clip-path="url(#f42f8e5c-4b89-48c1-95ff-5732ff62c3b4)" fill="none" x1="94" x2="88" y1="61" y2="73"/><line clip-path="url(#f42f8e5c-4b89-48c1-95ff-5732ff62c3b4)" fill="none" x1="94" x2="100" y1="61" y2="73"/></g></g><g data="{&quot;modelType&quot;:&quot;Transition2&quot;}" hyper="" model-id="connector-yB33O1mAU5E0fBQB" style="pointer-events: auto; cursor: pointer;"><g fill="black" fill-opacity="1" font-family="sans-serif" font-size="11px" image-rendering="optimizeQuality" stroke="black" stroke-linecap="butt" stroke-linejoin="round" stroke-opacity="1" text-rendering="geometricPrecision" transform="translate(122,64)"><line clip-path="url(#1a29a3bd-2eb1-44e2-9e4e-90d1bfa63806)" fill="none" x1="329" x2="50" y1="50" y2="50"/><line clip-path="url(#1a29a3bd-2eb1-44e2-9e4e-90d1bfa63806)" fill="none" x1="50" x2="62" y1="50" y2="56"/><line clip-path="url(#1a29a3bd-2eb1-44e2-9e4e-90d1bfa63806)" fill="none" x1="50" x2="62" y1="50" y2="44"/></g></g><g data="{&quot;modelType&quot;:&quot;Transition2&quot;}" hyper="" model-id="connector-sWiPO1mAU5E0fBQk" style="pointer-events: auto; cursor: pointer;"><g fill="black" fill-opacity="1" font-family="sans-serif" font-size="11px" image-rendering="optimizeQuality" stroke="black" stroke-linecap="butt" stroke-linejoin="round" stroke-opacity="1" text-rendering="geometricPrecision" transform="translate(114,89)"><line clip-path="url(#a9f6219b-b2b1-49d0-a610-e67cf4541d0a)" fill="none" x1="344" x2="296" y1="233" y2="233"/><line clip-path="url(#a9f6219b-b2b1-49d0-a610-e67cf4541d0a)" fill="none" x1="296" x2="50" y1="233" y2="109"/><line clip-path="url(#a9f6219b-b2b1-49d0-a610-e67cf4541d0a)" fill="none" x1="50" x2="50" y1="109" y2="50"/><line clip-path="url(#a9f6219b-b2b1-49d0-a610-e67cf4541d0a)" fill="none" x1="50" x2="44" y1="50" y2="62"/><line clip-path="url(#a9f6219b-b2b1-49d0-a610-e67cf4541d0a)" fill="none" x1="50" x2="56" y1="50" y2="62"/></g></g><g data="{&quot;modelType&quot;:&quot;Transition2&quot;}" hyper="" model-id="connector-12SvO1mAU5E0fBRl" style="pointer-events: auto; cursor: pointer;"><g fill="black" fill-opacity="1" font-family="sans-serif" font-size="11px" image-rendering="optimizeQuality" stroke="black" stroke-linecap="butt" stroke-linejoin="round" stroke-opacity="1" text-rendering="geometricPrecision" transform="translate(95,300)"><line clip-path="url(#9ed1e996-e3d5-4f60-80a7-0c14dd91519f)" fill="none" x1="440" x2="440" y1="126" y2="146"/><line clip-path="url(#9ed1e996-e3d5-4f60-80a7-0c14dd91519f)" fill="none" x1="440" x2="50" y1="146" y2="146"/><line clip-path="url(#9ed1e996-e3d5-4f60-80a7-0c14dd91519f)" fill="none" x1="50" x2="50" y1="146" y2="50"/><line clip-path="url(#9ed1e996-e3d5-4f60-80a7-0c14dd91519f)" fill="none" x1="50" x2="44" y1="50" y2="62"/><line clip-path="url(#9ed1e996-e3d5-4f60-80a7-0c14dd91519f)" fill="none" x1="50" x2="56" y1="50" y2="62"/></g></g><g data="{&quot;modelType&quot;:&quot;Transition2&quot;}" hyper="" model-id="connector-PEpvO1mAU5E0fBR8" style="pointer-events: auto; cursor: pointer;"><g fill="black" fill-opacity="1" font-family="sans-serif" font-size="11px" image-rendering="optimizeQuality" stroke="black" stroke-linecap="butt" stroke-linejoin="round" stroke-opacity="1" text-rendering="geometricPrecision" transform="translate(9,286)"><line clip-path="url(#03a7ee5c-c883-4f23-bde8-ee16408230c1)" fill="none" x1="69" x2="50" y1="50" y2="50"/><line clip-path="url(#03a7ee5c-c883-4f23-bde8-ee16408230c1)" fill="none" x1="50" x2="50" y1="50" y2="95"/><line clip-path="url(#03a7ee5c-c883-4f23-bde8-ee16408230c1)" fill="none" x1="50" x2="100" y1="95" y2="95"/><line clip-path="url(#03a7ee5c-c883-4f23-bde8-ee16408230c1)" fill="none" x1="100" x2="100" y1="95" y2="64"/><line clip-path="url(#03a7ee5c-c883-4f23-bde8-ee16408230c1)" fill="none" x1="100" x2="94" y1="64" y2="76"/><line clip-path="url(#03a7ee5c-c883-4f23-bde8-ee16408230c1)" fill="none" x1="100" x2="106" y1="64" y2="76"/></g></g><g data="{&quot;modelType&quot;:&quot;Transition2&quot;}" hyper="" model-id="connector-f63vO1mAU5E0fBSd" style="pointer-events: auto; cursor: pointer;"><g fill="black" fill-opacity="1" font-family="sans-serif" font-size="11px" image-rendering="optimizeQuality" stroke="black" stroke-linecap="butt" stroke-linejoin="round" stroke-opacity="1" text-rendering="geometricPrecision" transform="translate(102,226)"><line clip-path="url(#af4d511b-ad54-44c2-ba43-383aa35c5805)" fill="none" x1="50" x2="50" y1="83" y2="50"/><line clip-path="url(#af4d511b-ad54-44c2-ba43-383aa35c5805)" fill="none" x1="50" x2="97" y1="50" y2="50"/><line clip-path="url(#af4d511b-ad54-44c2-ba43-383aa35c5805)" fill="none" x1="97" x2="97" y1="50" y2="96"/><line clip-path="url(#af4d511b-ad54-44c2-ba43-383aa35c5805)" fill="none" x1="97" x2="70" y1="96" y2="96"/><line clip-path="url(#af4d511b-ad54-44c2-ba43-383aa35c5805)" fill="none" x1="70" x2="82" y1="96" y2="102"/><line clip-path="url(#af4d511b-ad54-44c2-ba43-383aa35c5805)" fill="none" x1="70" x2="82" y1="96" y2="90"/></g></g><g data="{&quot;modelType&quot;:&quot;Transition2&quot;}" hyper="" model-id="connector-AyMfO1mAU5E0fBSs" style="pointer-events: auto; cursor: pointer;"><g fill="black" fill-opacity="1" font-family="sans-serif" font-size="11px" image-rendering="optimizeQuality" stroke="black" stroke-linecap="butt" stroke-linejoin="round" stroke-opacity="1" text-rendering="geometricPrecision" transform="translate(49,89)"><line clip-path="url(#7d3f7165-5430-4d5f-85d6-b3a393ed6890)" fill="none" x1="50" x2="50" y1="220" y2="50"/><line clip-path="url(#7d3f7165-5430-4d5f-85d6-b3a393ed6890)" fill="none" x1="50" x2="44" y1="50" y2="62"/><line clip-path="url(#7d3f7165-5430-4d5f-85d6-b3a393ed6890)" fill="none" x1="50" x2="56" y1="50" y2="62"/></g></g><g fill="black" fill-opacity="1" font-family="sans-serif" font-size="11px" image-rendering="optimizeQuality" stroke="black" stroke-opacity="1" text-rendering="geometricPrecision" transform="translate(29,216)"><text clip-path="url(#a440df88-814f-405e-8502-ed94cbd871c6)" stroke="none" x="9" xml:space="preserve" y="12">onHook / disconnectedLine</text></g><g fill="black" fill-opacity="1" font-family="sans-serif" font-size="11px" image-rendering="optimizeQuality" stroke="black" stroke-opacity="1" text-rendering="geometricPrecision" transform="translate(157,289)"><text clip-path="url(#4c968b3a-0227-43f5-855d-741a73d89f29)" stroke="none" x="10" xml:space="preserve" y="12">invalidNumber / slowBusyTone</text></g><g fill="black" fill-opacity="1" font-family="sans-serif" font-size="11px" image-rendering="optimizeQuality" stroke="black" stroke-opacity="1" text-rendering="geometricPrecision" transform="translate(2,387)"><text clip-path="url(#99c393ce-43e2-43f7-a052-40d16485b0af)" stroke="none" x="10" xml:space="preserve" y="12">validNumber / slowBusyTone</text></g><g fill="black" fill-opacity="1" font-family="sans-serif" font-size="11px" image-rendering="optimizeQuality" stroke="black" stroke-opacity="1" text-rendering="geometricPrecision" transform="translate(254,437)"><text clip-path="url(#51fa14e9-c2be-4c1b-9da2-3347ecd4ebcf)" stroke="none" x="10" xml:space="preserve" y="12">invalidNumber / PlayMessage</text></g><g fill="black" fill-opacity="1" font-family="sans-serif" font-size="11px" image-rendering="optimizeQuality" stroke="black" stroke-opacity="1" text-rendering="geometricPrecision" transform="translate(193,247)"><text clip-path="url(#a440df88-814f-405e-8502-ed94cbd871c6)" stroke="none" x="9" xml:space="preserve" y="12">onHook / disconnectedLine</text></g><g fill="black" fill-opacity="1" font-family="sans-serif" font-size="11px" image-rendering="optimizeQuality" stroke="black" stroke-opacity="1" text-rendering="geometricPrecision" transform="translate(230,105)"><text clip-path="url(#a440df88-814f-405e-8502-ed94cbd871c6)" stroke="none" x="9" xml:space="preserve" y="12">onHook / disconnectedLine</text></g><g fill="black" fill-opacity="1" font-family="sans-serif" font-size="11px" image-rendering="optimizeQuality" stroke="black" stroke-opacity="1" text-rendering="geometricPrecision" transform="translate(374,172)"><text clip-path="url(#accf9117-67f0-4932-9d2f-cafe774a7e9c)" stroke="none" x="9" xml:space="preserve" y="12">invalidNumber / continues</text></g><g fill="black" fill-opacity="1" font-family="sans-serif" font-size="11px" image-rendering="optimizeQuality" stroke="black" stroke-opacity="1" text-rendering="geometricPrecision" transform="translate(581,86)"><text clip-path="url(#3987d179-ef16-4b63-a340-0c26b8877c07)" stroke="none" x="10" xml:space="preserve" y="12">validNumber / continues</text></g><g fill="black" fill-opacity="1" font-family="sans-serif" font-size="11px" image-rendering="optimizeQuality" stroke="black" stroke-opacity="1" text-rendering="geometricPrecision" transform="translate(458,216)"><text clip-path="url(#ab285c23-ad60-4e38-b727-b535898787b5)" stroke="none" x="9" xml:space="preserve" y="12">validNumber / findConnection</text></g><g fill="black" fill-opacity="1" font-family="sans-serif" font-size="11px" image-rendering="optimizeQuality" stroke="black" stroke-opacity="1" text-rendering="geometricPrecision" transform="translate(218,147)"><text clip-path="url(#50da4d5e-087e-400a-942d-4ff7ecaf00f5)" stroke="none" x="9" xml:space="preserve" y="12">offHook / soundDialTone</text></g><g fill="rgb(120,120,120)" fill-opacity="1" font-size="10px" image-rendering="optimizeQuality" stroke="rgb(120,120,120)" stroke-opacity="1" text-rendering="geometricPrecision" transform="rotate(-45) translate(-324.6907,0)"><text stroke="none" x="0" xml:space="preserve" y="0">Visual Paradigm Enterprise [evaluation copy] </text><text stroke="none" x="227" xml:space="preserve" y="0">Visual Paradigm Enterprise [evaluation copy] </text><text stroke="none" x="454" xml:space="preserve" y="0">Visual Paradigm Enterprise [evaluation copy] </text><text stroke="none" x="681" xml:space="preserve" y="0">Visual Paradigm Enterprise [evaluation copy] </text><text stroke="none" x="100" xml:space="preserve" y="56">Visual Paradigm Enterprise [evaluation copy] </text><text stroke="none" x="327" xml:space="preserve" y="56">Visual Paradigm Enterprise [evaluation copy] </text><text stroke="none" x="554" xml:space="preserve" y="56">Visual Paradigm Enterprise [evaluation copy] </text><text stroke="none" x="781" xml:space="preserve" y="56">Visual Paradigm Enterprise [evaluation copy] </text><text stroke="none" x="0" xml:space="preserve" y="112">Visual Paradigm Enterprise [evaluation copy] </text><text stroke="none" x="227" xml:space="preserve" y="112">Visual Paradigm Enterprise [evaluation copy] </text><text stroke="none" x="454" xml:space="preserve" y="112">Visual Paradigm Enterprise [evaluation copy] </text><text stroke="none" x="681" xml:space="preserve" y="112">Visual Paradigm Enterprise [evaluation copy] </text><text stroke="none" x="100" xml:space="preserve" y="168">Visual Paradigm Enterprise [evaluation copy] </text><text stroke="none" x="327" xml:space="preserve" y="168">Visual Paradigm Enterprise [evaluation copy] </text><text stroke="none" x="554" xml:space="preserve" y="168">Visual Paradigm Enterprise [evaluation copy] </text><text stroke="none" x="781" xml:space="preserve" y="168">Visual Paradigm Enterprise [evaluation copy] </text><text stroke="none" x="0" xml:space="preserve" y="224">Visual Paradigm Enterprise [evaluation copy] </text><text stroke="none" x="227" xml:space="preserve" y="224">Visual Paradigm Enterprise [evaluation copy] </text><text stroke="none" x="454" xml:space="preserve" y="224">Visual Paradigm Enterprise [evaluation copy] </text><text stroke="none" x="681" xml:space="preserve" y="224">Visual Paradigm Enterprise [evaluation copy] </text><text stroke="none" x="100" xml:space="preserve" y="280">Visual Paradigm Enterprise [evaluation copy] </text><text stroke="none" x="327" xml:space="preserve" y="280">Visual Paradigm Enterprise [evaluation copy] </text><text stroke="none" x="554" xml:space="preserve" y="280">Visual Paradigm Enterprise [evaluation copy] </text><text stroke="none" x="781" xml:space="preserve" y="280">Visual Paradigm Enterprise [evaluation copy] </text><text stroke="none" x="0" xml:space="preserve" y="336">Visual Paradigm Enterprise [evaluation copy] </text><text stroke="none" x="227" xml:space="preserve" y="336">Visual Paradigm Enterprise [evaluation copy] </text><text stroke="none" x="454" xml:space="preserve" y="336">Visual Paradigm Enterprise [evaluation copy] </text><text stroke="none" x="681" xml:space="preserve" y="336">Visual Paradigm Enterprise [evaluation copy] </text><text stroke="none" x="100" xml:space="preserve" y="392">Visual Paradigm Enterprise [evaluation copy] </text><text stroke="none" x="327" xml:space="preserve" y="392">Visual Paradigm Enterprise [evaluation copy] </text><text stroke="none" x="554" xml:space="preserve" y="392">Visual Paradigm Enterprise [evaluation copy] </text><text stroke="none" x="781" xml:space="preserve" y="392">Visual Paradigm Enterprise [evaluation copy] </text><text stroke="none" x="0" xml:space="preserve" y="448">Visual Paradigm Enterprise [evaluation copy] </text><text stroke="none" x="227" xml:space="preserve" y="448">Visual Paradigm Enterprise [evaluation copy] </text><text stroke="none" x="454" xml:space="preserve" y="448">Visual Paradigm Enterprise [evaluation copy] </text><text stroke="none" x="681" xml:space="preserve" y="448">Visual Paradigm Enterprise [evaluation copy] </text><text stroke="none" x="100" xml:space="preserve" y="504">Visual Paradigm Enterprise [evaluation copy] </text><text stroke="none" x="327" xml:space="preserve" y="504">Visual Paradigm Enterprise [evaluation copy] </text><text stroke="none" x="554" xml:space="preserve" y="504">Visual Paradigm Enterprise [evaluation copy] </text><text stroke="none" x="781" xml:space="preserve" y="504">Visual Paradigm Enterprise [evaluation copy] </text><text stroke="none" x="0" xml:space="preserve" y="560">Visual Paradigm Enterprise [evaluation copy] </text><text stroke="none" x="227" xml:space="preserve" y="560">Visual Paradigm Enterprise [evaluation copy] </text><text stroke="none" x="454" xml:space="preserve" y="560">Visual Paradigm Enterprise [evaluation copy] </text><text stroke="none" x="681" xml:space="preserve" y="560">Visual Paradigm Enterprise [evaluation copy] </text><text stroke="none" x="100" xml:space="preserve" y="616">Visual Paradigm Enterprise [evaluation copy] </text><text stroke="none" x="327" xml:space="preserve" y="616">Visual Paradigm Enterprise [evaluation copy] </text><text stroke="none" x="554" xml:space="preserve" y="616">Visual Paradigm Enterprise [evaluation copy] </text><text stroke="none" x="781" xml:space="preserve" y="616">Visual Paradigm Enterprise [evaluation copy] </text><text stroke="none" x="0" xml:space="preserve" y="672">Visual Paradigm Enterprise [evaluation copy] </text><text stroke="none" x="227" xml:space="preserve" y="672">Visual Paradigm Enterprise [evaluation copy] </text><text stroke="none" x="454" xml:space="preserve" y="672">Visual Paradigm Enterprise [evaluation copy] </text><text stroke="none" x="681" xml:space="preserve" y="672">Visual Paradigm Enterprise [evaluation copy] </text><text stroke="none" x="100" xml:space="preserve" y="728">Visual Paradigm Enterprise [evaluation copy] </text><text stroke="none" x="327" xml:space="preserve" y="728">Visual Paradigm Enterprise [evaluation copy] </text><text stroke="none" x="554" xml:space="preserve" y="728">Visual Paradigm Enterprise [evaluation copy] </text><text stroke="none" x="781" xml:space="preserve" y="728">Visual Paradigm Enterprise [evaluation copy] </text><text stroke="none" x="0" xml:space="preserve" y="784">Visual Paradigm Enterprise [evaluation copy] </text><text stroke="none" x="227" xml:space="preserve" y="784">Visual Paradigm Enterprise [evaluation copy] </text><text stroke="none" x="454" xml:space="preserve" y="784">Visual Paradigm Enterprise [evaluation copy] </text><text stroke="none" x="681" xml:space="preserve" y="784">Visual Paradigm Enterprise [evaluation copy] </text></g></g></svg>